<?xml version="1.0" encoding="utf-8" standalone="no"?>
<!DOCTYPE svg PUBLIC "-//W3C//DTD SVG 1.1//EN"
  "http://www.w3.org/Graphics/SVG/1.1/DTD/svg11.dtd">
<!-- Created with matplotlib (https://matplotlib.org/) -->
<svg height="262.884678pt" version="1.1" viewBox="0 0 267.909181 262.884678" width="267.909181pt" xmlns="http://www.w3.org/2000/svg" xmlns:xlink="http://www.w3.org/1999/xlink">
 <defs>
  <style type="text/css">
*{stroke-linecap:butt;stroke-linejoin:round;}
  </style>
 </defs>
 <g id="figure_1">
  <g id="patch_1">
   <path d="M 0 262.884678 
L 267.909181 262.884678 
L 267.909181 0 
L 0 0 
z
" style="fill:#ffffff;"/>
  </g>
  <g id="axes_1">
   <g id="patch_2">
    <path d="M 37.509181 94.164706 
L 125.038593 94.164706 
L 125.038593 7.2 
L 37.509181 7.2 
z
" style="fill:#ffffff;"/>
   </g>
   <g id="patch_3">
    <path clip-path="url(#p4e9755d884)" d="M 37.509181 94.164706 
L 37.509181 94.161122 
L 40.426828 94.161122 
L 40.426828 93.573328 
L 43.344475 93.573328 
L 43.344475 88.215088 
L 46.262122 88.215088 
L 46.262122 54.373948 
L 49.179769 54.373948 
L 49.179769 28.206381 
L 52.097417 28.206381 
L 52.097417 29.747547 
L 55.015064 29.747547 
L 55.015064 43.16286 
L 57.932711 43.16286 
L 57.932711 59.807454 
L 60.850358 59.807454 
L 60.850358 71.133233 
L 63.768005 71.133233 
L 63.768005 78.566671 
L 66.685652 78.566671 
L 66.685652 84.308411 
L 69.603299 84.308411 
L 69.603299 87.774243 
L 72.520946 87.774243 
L 72.520946 89.530455 
L 75.438593 89.530455 
L 75.438593 90.885248 
L 78.35624 90.885248 
L 78.35624 91.852957 
L 81.273887 91.852957 
L 81.273887 92.447919 
L 84.191534 92.447919 
L 84.191534 92.856507 
L 87.109181 92.856507 
L 87.109181 93.311688 
L 90.026828 93.311688 
L 90.026828 93.483726 
L 92.944475 93.483726 
L 92.944475 93.562576 
L 95.862122 93.562576 
L 95.862122 93.670099 
L 98.779769 93.670099 
L 98.779769 93.734613 
L 101.697417 93.734613 
L 101.697417 93.852889 
L 104.615064 93.852889 
L 104.615064 93.920987 
L 107.532711 93.920987 
L 107.532711 93.992669 
L 110.450358 93.992669 
L 110.450358 94.042846 
L 113.368005 94.042846 
L 113.368005 94.067935 
L 116.285652 94.067935 
L 116.285652 94.067935 
L 119.203299 94.067935 
L 119.203299 94.100192 
L 122.120946 94.100192 
L 122.120946 94.050014 
L 125.038593 94.050014 
L 125.038593 94.164706 
" style="fill:none;stroke:#000000;stroke-linejoin:miter;stroke-width:0.5;"/>
   </g>
   <g id="matplotlib.axis_1">
    <g id="xtick_1">
     <g id="line2d_1">
      <defs>
       <path d="M 0 0 
L 0 -6 
" id="m427c818cd7" style="stroke:#000000;stroke-width:0.5;"/>
      </defs>
      <g>
       <use style="stroke:#000000;stroke-width:0.5;" x="37.509181" xlink:href="#m427c818cd7" y="94.164706"/>
      </g>
     </g>
     <g id="line2d_2">
      <defs>
       <path d="M 0 0 
L 0 6 
" id="m2a97f587a5" style="stroke:#000000;stroke-width:0.5;"/>
      </defs>
      <g>
       <use style="stroke:#000000;stroke-width:0.5;" x="37.509181" xlink:href="#m2a97f587a5" y="7.2"/>
      </g>
     </g>
     <g id="text_1">
      <!-- 0 -->
      <defs>
       <path d="M 31.78125 66.40625 
Q 24.171875 66.40625 20.328125 58.90625 
Q 16.5 51.421875 16.5 36.375 
Q 16.5 21.390625 20.328125 13.890625 
Q 24.171875 6.390625 31.78125 6.390625 
Q 39.453125 6.390625 43.28125 13.890625 
Q 47.125 21.390625 47.125 36.375 
Q 47.125 51.421875 43.28125 58.90625 
Q 39.453125 66.40625 31.78125 66.40625 
z
M 31.78125 74.21875 
Q 44.046875 74.21875 50.515625 64.515625 
Q 56.984375 54.828125 56.984375 36.375 
Q 56.984375 17.96875 50.515625 8.265625 
Q 44.046875 -1.421875 31.78125 -1.421875 
Q 19.53125 -1.421875 13.0625 8.265625 
Q 6.59375 17.96875 6.59375 36.375 
Q 6.59375 54.828125 13.0625 64.515625 
Q 19.53125 74.21875 31.78125 74.21875 
z
" id="DejaVuSans-48"/>
      </defs>
      <g transform="translate(34.8592 105.494204)scale(0.0833 -0.0833)">
       <use xlink:href="#DejaVuSans-48"/>
      </g>
     </g>
    </g>
    <g id="xtick_2">
     <g id="line2d_3">
      <g>
       <use style="stroke:#000000;stroke-width:0.5;" x="73.979769" xlink:href="#m427c818cd7" y="94.164706"/>
      </g>
     </g>
     <g id="line2d_4">
      <g>
       <use style="stroke:#000000;stroke-width:0.5;" x="73.979769" xlink:href="#m2a97f587a5" y="7.2"/>
      </g>
     </g>
     <g id="text_2">
      <!-- 5 -->
      <defs>
       <path d="M 10.796875 72.90625 
L 49.515625 72.90625 
L 49.515625 64.59375 
L 19.828125 64.59375 
L 19.828125 46.734375 
Q 21.96875 47.46875 24.109375 47.828125 
Q 26.265625 48.1875 28.421875 48.1875 
Q 40.625 48.1875 47.75 41.5 
Q 54.890625 34.8125 54.890625 23.390625 
Q 54.890625 11.625 47.5625 5.09375 
Q 40.234375 -1.421875 26.90625 -1.421875 
Q 22.3125 -1.421875 17.546875 -0.640625 
Q 12.796875 0.140625 7.71875 1.703125 
L 7.71875 11.625 
Q 12.109375 9.234375 16.796875 8.0625 
Q 21.484375 6.890625 26.703125 6.890625 
Q 35.15625 6.890625 40.078125 11.328125 
Q 45.015625 15.765625 45.015625 23.390625 
Q 45.015625 31 40.078125 35.4375 
Q 35.15625 39.890625 26.703125 39.890625 
Q 22.75 39.890625 18.8125 39.015625 
Q 14.890625 38.140625 10.796875 36.28125 
z
" id="DejaVuSans-53"/>
      </defs>
      <g transform="translate(71.329788 105.494204)scale(0.0833 -0.0833)">
       <use xlink:href="#DejaVuSans-53"/>
      </g>
     </g>
    </g>
    <g id="xtick_3">
     <g id="line2d_5">
      <g>
       <use style="stroke:#000000;stroke-width:0.5;" x="110.450358" xlink:href="#m427c818cd7" y="94.164706"/>
      </g>
     </g>
     <g id="line2d_6">
      <g>
       <use style="stroke:#000000;stroke-width:0.5;" x="110.450358" xlink:href="#m2a97f587a5" y="7.2"/>
      </g>
     </g>
     <g id="text_3">
      <!-- 10 -->
      <defs>
       <path d="M 12.40625 8.296875 
L 28.515625 8.296875 
L 28.515625 63.921875 
L 10.984375 60.40625 
L 10.984375 69.390625 
L 28.421875 72.90625 
L 38.28125 72.90625 
L 38.28125 8.296875 
L 54.390625 8.296875 
L 54.390625 0 
L 12.40625 0 
z
" id="DejaVuSans-49"/>
      </defs>
      <g transform="translate(105.150395 105.494204)scale(0.0833 -0.0833)">
       <use xlink:href="#DejaVuSans-49"/>
       <use x="63.623047" xlink:href="#DejaVuSans-48"/>
      </g>
     </g>
    </g>
    <g id="xtick_4">
     <g id="line2d_7">
      <defs>
       <path d="M 0 0 
L 0 -3 
" id="m1173a83ee5" style="stroke:#000000;stroke-width:0.5;"/>
      </defs>
      <g>
       <use style="stroke:#000000;stroke-width:0.5;" x="44.803299" xlink:href="#m1173a83ee5" y="94.164706"/>
      </g>
     </g>
     <g id="line2d_8">
      <defs>
       <path d="M 0 0 
L 0 3 
" id="m5ba1b056b7" style="stroke:#000000;stroke-width:0.5;"/>
      </defs>
      <g>
       <use style="stroke:#000000;stroke-width:0.5;" x="44.803299" xlink:href="#m5ba1b056b7" y="7.2"/>
      </g>
     </g>
    </g>
    <g id="xtick_5">
     <g id="line2d_9">
      <g>
       <use style="stroke:#000000;stroke-width:0.5;" x="52.097417" xlink:href="#m1173a83ee5" y="94.164706"/>
      </g>
     </g>
     <g id="line2d_10">
      <g>
       <use style="stroke:#000000;stroke-width:0.5;" x="52.097417" xlink:href="#m5ba1b056b7" y="7.2"/>
      </g>
     </g>
    </g>
    <g id="xtick_6">
     <g id="line2d_11">
      <g>
       <use style="stroke:#000000;stroke-width:0.5;" x="59.391534" xlink:href="#m1173a83ee5" y="94.164706"/>
      </g>
     </g>
     <g id="line2d_12">
      <g>
       <use style="stroke:#000000;stroke-width:0.5;" x="59.391534" xlink:href="#m5ba1b056b7" y="7.2"/>
      </g>
     </g>
    </g>
    <g id="xtick_7">
     <g id="line2d_13">
      <g>
       <use style="stroke:#000000;stroke-width:0.5;" x="66.685652" xlink:href="#m1173a83ee5" y="94.164706"/>
      </g>
     </g>
     <g id="line2d_14">
      <g>
       <use style="stroke:#000000;stroke-width:0.5;" x="66.685652" xlink:href="#m5ba1b056b7" y="7.2"/>
      </g>
     </g>
    </g>
    <g id="xtick_8">
     <g id="line2d_15">
      <g>
       <use style="stroke:#000000;stroke-width:0.5;" x="81.273887" xlink:href="#m1173a83ee5" y="94.164706"/>
      </g>
     </g>
     <g id="line2d_16">
      <g>
       <use style="stroke:#000000;stroke-width:0.5;" x="81.273887" xlink:href="#m5ba1b056b7" y="7.2"/>
      </g>
     </g>
    </g>
    <g id="xtick_9">
     <g id="line2d_17">
      <g>
       <use style="stroke:#000000;stroke-width:0.5;" x="88.568005" xlink:href="#m1173a83ee5" y="94.164706"/>
      </g>
     </g>
     <g id="line2d_18">
      <g>
       <use style="stroke:#000000;stroke-width:0.5;" x="88.568005" xlink:href="#m5ba1b056b7" y="7.2"/>
      </g>
     </g>
    </g>
    <g id="xtick_10">
     <g id="line2d_19">
      <g>
       <use style="stroke:#000000;stroke-width:0.5;" x="95.862122" xlink:href="#m1173a83ee5" y="94.164706"/>
      </g>
     </g>
     <g id="line2d_20">
      <g>
       <use style="stroke:#000000;stroke-width:0.5;" x="95.862122" xlink:href="#m5ba1b056b7" y="7.2"/>
      </g>
     </g>
    </g>
    <g id="xtick_11">
     <g id="line2d_21">
      <g>
       <use style="stroke:#000000;stroke-width:0.5;" x="103.15624" xlink:href="#m1173a83ee5" y="94.164706"/>
      </g>
     </g>
     <g id="line2d_22">
      <g>
       <use style="stroke:#000000;stroke-width:0.5;" x="103.15624" xlink:href="#m5ba1b056b7" y="7.2"/>
      </g>
     </g>
    </g>
    <g id="xtick_12">
     <g id="line2d_23">
      <g>
       <use style="stroke:#000000;stroke-width:0.5;" x="117.744475" xlink:href="#m1173a83ee5" y="94.164706"/>
      </g>
     </g>
     <g id="line2d_24">
      <g>
       <use style="stroke:#000000;stroke-width:0.5;" x="117.744475" xlink:href="#m5ba1b056b7" y="7.2"/>
      </g>
     </g>
    </g>
    <g id="xtick_13">
     <g id="line2d_25">
      <g>
       <use style="stroke:#000000;stroke-width:0.5;" x="125.038593" xlink:href="#m1173a83ee5" y="94.164706"/>
      </g>
     </g>
     <g id="line2d_26">
      <g>
       <use style="stroke:#000000;stroke-width:0.5;" x="125.038593" xlink:href="#m5ba1b056b7" y="7.2"/>
      </g>
     </g>
    </g>
    <g id="text_4">
     <!-- $R_{50,r}$ [arcsec] -->
     <defs>
      <path d="M 25.203125 64.796875 
L 20.21875 38.921875 
L 32.90625 38.921875 
Q 40.375 38.921875 44.984375 43.046875 
Q 49.609375 47.171875 49.609375 53.8125 
Q 49.609375 59.125 46.5 61.953125 
Q 43.40625 64.796875 37.59375 64.796875 
z
M 43.3125 35.015625 
Q 46.4375 34.28125 48.515625 31.390625 
Q 50.59375 28.515625 53.328125 19.921875 
L 59.515625 0 
L 49.125 0 
L 43.40625 18.703125 
Q 41.21875 25.921875 38.328125 28.359375 
Q 35.453125 30.8125 29.5 30.8125 
L 18.609375 30.8125 
L 12.59375 0 
L 2.6875 0 
L 16.890625 72.90625 
L 39.109375 72.90625 
Q 49.21875 72.90625 54.609375 68.328125 
Q 60.015625 63.765625 60.015625 55.171875 
Q 60.015625 47.5625 55.421875 41.984375 
Q 50.828125 36.421875 43.3125 35.015625 
z
" id="DejaVuSans-Oblique-82"/>
      <path d="M 11.71875 12.40625 
L 22.015625 12.40625 
L 22.015625 4 
L 14.015625 -11.625 
L 7.71875 -11.625 
L 11.71875 4 
z
" id="DejaVuSans-44"/>
      <path d="M 44.578125 46.390625 
Q 43.21875 47.125 41.453125 47.515625 
Q 39.703125 47.90625 37.703125 47.90625 
Q 30.515625 47.90625 25.140625 42.453125 
Q 19.78125 37.015625 18.015625 27.875 
L 12.5 0 
L 3.515625 0 
L 14.203125 54.6875 
L 23.1875 54.6875 
L 21.484375 46.1875 
Q 25.046875 50.921875 30 53.453125 
Q 34.96875 56 40.578125 56 
Q 42.046875 56 43.453125 55.828125 
Q 44.875 55.671875 46.296875 55.28125 
z
" id="DejaVuSans-Oblique-114"/>
      <path id="DejaVuSans-32"/>
      <path d="M 8.59375 75.984375 
L 29.296875 75.984375 
L 29.296875 69 
L 17.578125 69 
L 17.578125 -6.203125 
L 29.296875 -6.203125 
L 29.296875 -13.1875 
L 8.59375 -13.1875 
z
" id="DejaVuSans-91"/>
      <path d="M 34.28125 27.484375 
Q 23.390625 27.484375 19.1875 25 
Q 14.984375 22.515625 14.984375 16.5 
Q 14.984375 11.71875 18.140625 8.90625 
Q 21.296875 6.109375 26.703125 6.109375 
Q 34.1875 6.109375 38.703125 11.40625 
Q 43.21875 16.703125 43.21875 25.484375 
L 43.21875 27.484375 
z
M 52.203125 31.203125 
L 52.203125 0 
L 43.21875 0 
L 43.21875 8.296875 
Q 40.140625 3.328125 35.546875 0.953125 
Q 30.953125 -1.421875 24.3125 -1.421875 
Q 15.921875 -1.421875 10.953125 3.296875 
Q 6 8.015625 6 15.921875 
Q 6 25.140625 12.171875 29.828125 
Q 18.359375 34.515625 30.609375 34.515625 
L 43.21875 34.515625 
L 43.21875 35.40625 
Q 43.21875 41.609375 39.140625 45 
Q 35.0625 48.390625 27.6875 48.390625 
Q 23 48.390625 18.546875 47.265625 
Q 14.109375 46.140625 10.015625 43.890625 
L 10.015625 52.203125 
Q 14.9375 54.109375 19.578125 55.046875 
Q 24.21875 56 28.609375 56 
Q 40.484375 56 46.34375 49.84375 
Q 52.203125 43.703125 52.203125 31.203125 
z
" id="DejaVuSans-97"/>
      <path d="M 41.109375 46.296875 
Q 39.59375 47.171875 37.8125 47.578125 
Q 36.03125 48 33.890625 48 
Q 26.265625 48 22.1875 43.046875 
Q 18.109375 38.09375 18.109375 28.8125 
L 18.109375 0 
L 9.078125 0 
L 9.078125 54.6875 
L 18.109375 54.6875 
L 18.109375 46.1875 
Q 20.953125 51.171875 25.484375 53.578125 
Q 30.03125 56 36.53125 56 
Q 37.453125 56 38.578125 55.875 
Q 39.703125 55.765625 41.0625 55.515625 
z
" id="DejaVuSans-114"/>
      <path d="M 48.78125 52.59375 
L 48.78125 44.1875 
Q 44.96875 46.296875 41.140625 47.34375 
Q 37.3125 48.390625 33.40625 48.390625 
Q 24.65625 48.390625 19.8125 42.84375 
Q 14.984375 37.3125 14.984375 27.296875 
Q 14.984375 17.28125 19.8125 11.734375 
Q 24.65625 6.203125 33.40625 6.203125 
Q 37.3125 6.203125 41.140625 7.25 
Q 44.96875 8.296875 48.78125 10.40625 
L 48.78125 2.09375 
Q 45.015625 0.34375 40.984375 -0.53125 
Q 36.96875 -1.421875 32.421875 -1.421875 
Q 20.0625 -1.421875 12.78125 6.34375 
Q 5.515625 14.109375 5.515625 27.296875 
Q 5.515625 40.671875 12.859375 48.328125 
Q 20.21875 56 33.015625 56 
Q 37.15625 56 41.109375 55.140625 
Q 45.0625 54.296875 48.78125 52.59375 
z
" id="DejaVuSans-99"/>
      <path d="M 44.28125 53.078125 
L 44.28125 44.578125 
Q 40.484375 46.53125 36.375 47.5 
Q 32.28125 48.484375 27.875 48.484375 
Q 21.1875 48.484375 17.84375 46.4375 
Q 14.5 44.390625 14.5 40.28125 
Q 14.5 37.15625 16.890625 35.375 
Q 19.28125 33.59375 26.515625 31.984375 
L 29.59375 31.296875 
Q 39.15625 29.25 43.1875 25.515625 
Q 47.21875 21.78125 47.21875 15.09375 
Q 47.21875 7.46875 41.1875 3.015625 
Q 35.15625 -1.421875 24.609375 -1.421875 
Q 20.21875 -1.421875 15.453125 -0.5625 
Q 10.6875 0.296875 5.421875 2 
L 5.421875 11.28125 
Q 10.40625 8.6875 15.234375 7.390625 
Q 20.0625 6.109375 24.8125 6.109375 
Q 31.15625 6.109375 34.5625 8.28125 
Q 37.984375 10.453125 37.984375 14.40625 
Q 37.984375 18.0625 35.515625 20.015625 
Q 33.0625 21.96875 24.703125 23.78125 
L 21.578125 24.515625 
Q 13.234375 26.265625 9.515625 29.90625 
Q 5.8125 33.546875 5.8125 39.890625 
Q 5.8125 47.609375 11.28125 51.796875 
Q 16.75 56 26.8125 56 
Q 31.78125 56 36.171875 55.265625 
Q 40.578125 54.546875 44.28125 53.078125 
z
" id="DejaVuSans-115"/>
      <path d="M 56.203125 29.59375 
L 56.203125 25.203125 
L 14.890625 25.203125 
Q 15.484375 15.921875 20.484375 11.0625 
Q 25.484375 6.203125 34.421875 6.203125 
Q 39.59375 6.203125 44.453125 7.46875 
Q 49.3125 8.734375 54.109375 11.28125 
L 54.109375 2.78125 
Q 49.265625 0.734375 44.1875 -0.34375 
Q 39.109375 -1.421875 33.890625 -1.421875 
Q 20.796875 -1.421875 13.15625 6.1875 
Q 5.515625 13.8125 5.515625 26.8125 
Q 5.515625 40.234375 12.765625 48.109375 
Q 20.015625 56 32.328125 56 
Q 43.359375 56 49.78125 48.890625 
Q 56.203125 41.796875 56.203125 29.59375 
z
M 47.21875 32.234375 
Q 47.125 39.59375 43.09375 43.984375 
Q 39.0625 48.390625 32.421875 48.390625 
Q 24.90625 48.390625 20.390625 44.140625 
Q 15.875 39.890625 15.1875 32.171875 
z
" id="DejaVuSans-101"/>
      <path d="M 30.421875 75.984375 
L 30.421875 -13.1875 
L 9.71875 -13.1875 
L 9.71875 -6.203125 
L 21.390625 -6.203125 
L 21.390625 69 
L 9.71875 69 
L 9.71875 75.984375 
z
" id="DejaVuSans-93"/>
     </defs>
     <g transform="translate(53.701587 117.557384)scale(0.0833 -0.0833)">
      <use transform="translate(0 0.015625)" xlink:href="#DejaVuSans-Oblique-82"/>
      <use transform="translate(69.482422 -16.390625)scale(0.7)" xlink:href="#DejaVuSans-53"/>
      <use transform="translate(114.018555 -16.390625)scale(0.7)" xlink:href="#DejaVuSans-48"/>
      <use transform="translate(158.554688 -16.390625)scale(0.7)" xlink:href="#DejaVuSans-44"/>
      <use transform="translate(194.443359 -16.390625)scale(0.7)" xlink:href="#DejaVuSans-Oblique-114"/>
      <use transform="translate(225.957031 0.015625)" xlink:href="#DejaVuSans-32"/>
      <use transform="translate(257.744141 0.015625)" xlink:href="#DejaVuSans-91"/>
      <use transform="translate(296.757812 0.015625)" xlink:href="#DejaVuSans-97"/>
      <use transform="translate(358.037109 0.015625)" xlink:href="#DejaVuSans-114"/>
      <use transform="translate(399.150391 0.015625)" xlink:href="#DejaVuSans-99"/>
      <use transform="translate(454.130859 0.015625)" xlink:href="#DejaVuSans-115"/>
      <use transform="translate(506.230469 0.015625)" xlink:href="#DejaVuSans-101"/>
      <use transform="translate(567.753906 0.015625)" xlink:href="#DejaVuSans-99"/>
      <use transform="translate(622.734375 0.015625)" xlink:href="#DejaVuSans-93"/>
     </g>
    </g>
   </g>
   <g id="matplotlib.axis_2">
    <g id="ytick_1">
     <g id="line2d_27">
      <defs>
       <path d="M 0 0 
L 6 0 
" id="m2a1e3e6cb8" style="stroke:#000000;stroke-width:0.5;"/>
      </defs>
      <g>
       <use style="stroke:#000000;stroke-width:0.5;" x="37.509181" xlink:href="#m2a1e3e6cb8" y="94.164706"/>
      </g>
     </g>
     <g id="line2d_28">
      <defs>
       <path d="M 0 0 
L -6 0 
" id="m11d9790bbe" style="stroke:#000000;stroke-width:0.5;"/>
      </defs>
      <g>
       <use style="stroke:#000000;stroke-width:0.5;" x="125.038593" xlink:href="#m11d9790bbe" y="94.164706"/>
      </g>
     </g>
     <g id="text_5">
      <!-- 0 -->
      <g transform="translate(27.209219 97.329455)scale(0.0833 -0.0833)">
       <use xlink:href="#DejaVuSans-48"/>
      </g>
     </g>
    </g>
    <g id="ytick_2">
     <g id="line2d_29">
      <g>
       <use style="stroke:#000000;stroke-width:0.5;" x="37.509181" xlink:href="#m2a1e3e6cb8" y="67.406335"/>
      </g>
     </g>
     <g id="line2d_30">
      <g>
       <use style="stroke:#000000;stroke-width:0.5;" x="125.038593" xlink:href="#m11d9790bbe" y="67.406335"/>
      </g>
     </g>
     <g id="text_6">
      <!-- 0.2 -->
      <defs>
       <path d="M 10.6875 12.40625 
L 21 12.40625 
L 21 0 
L 10.6875 0 
z
" id="DejaVuSans-46"/>
       <path d="M 19.1875 8.296875 
L 53.609375 8.296875 
L 53.609375 0 
L 7.328125 0 
L 7.328125 8.296875 
Q 12.9375 14.109375 22.625 23.890625 
Q 32.328125 33.6875 34.8125 36.53125 
Q 39.546875 41.84375 41.421875 45.53125 
Q 43.3125 49.21875 43.3125 52.78125 
Q 43.3125 58.59375 39.234375 62.25 
Q 35.15625 65.921875 28.609375 65.921875 
Q 23.96875 65.921875 18.8125 64.3125 
Q 13.671875 62.703125 7.8125 59.421875 
L 7.8125 69.390625 
Q 13.765625 71.78125 18.9375 73 
Q 24.125 74.21875 28.421875 74.21875 
Q 39.75 74.21875 46.484375 68.546875 
Q 53.21875 62.890625 53.21875 53.421875 
Q 53.21875 48.921875 51.53125 44.890625 
Q 49.859375 40.875 45.40625 35.40625 
Q 44.1875 33.984375 37.640625 27.21875 
Q 31.109375 20.453125 19.1875 8.296875 
z
" id="DejaVuSans-50"/>
      </defs>
      <g transform="translate(19.261878 70.571084)scale(0.0833 -0.0833)">
       <use xlink:href="#DejaVuSans-48"/>
       <use x="63.623047" xlink:href="#DejaVuSans-46"/>
       <use x="95.410156" xlink:href="#DejaVuSans-50"/>
      </g>
     </g>
    </g>
    <g id="ytick_3">
     <g id="line2d_31">
      <g>
       <use style="stroke:#000000;stroke-width:0.5;" x="37.509181" xlink:href="#m2a1e3e6cb8" y="40.647964"/>
      </g>
     </g>
     <g id="line2d_32">
      <g>
       <use style="stroke:#000000;stroke-width:0.5;" x="125.038593" xlink:href="#m11d9790bbe" y="40.647964"/>
      </g>
     </g>
     <g id="text_7">
      <!-- 0.4 -->
      <defs>
       <path d="M 37.796875 64.3125 
L 12.890625 25.390625 
L 37.796875 25.390625 
z
M 35.203125 72.90625 
L 47.609375 72.90625 
L 47.609375 25.390625 
L 58.015625 25.390625 
L 58.015625 17.1875 
L 47.609375 17.1875 
L 47.609375 0 
L 37.796875 0 
L 37.796875 17.1875 
L 4.890625 17.1875 
L 4.890625 26.703125 
z
" id="DejaVuSans-52"/>
      </defs>
      <g transform="translate(19.261878 43.812713)scale(0.0833 -0.0833)">
       <use xlink:href="#DejaVuSans-48"/>
       <use x="63.623047" xlink:href="#DejaVuSans-46"/>
       <use x="95.410156" xlink:href="#DejaVuSans-52"/>
      </g>
     </g>
    </g>
    <g id="ytick_4">
     <g id="line2d_33">
      <g>
       <use style="stroke:#000000;stroke-width:0.5;" x="37.509181" xlink:href="#m2a1e3e6cb8" y="13.889593"/>
      </g>
     </g>
     <g id="line2d_34">
      <g>
       <use style="stroke:#000000;stroke-width:0.5;" x="125.038593" xlink:href="#m11d9790bbe" y="13.889593"/>
      </g>
     </g>
     <g id="text_8">
      <!-- 0.6 -->
      <defs>
       <path d="M 33.015625 40.375 
Q 26.375 40.375 22.484375 35.828125 
Q 18.609375 31.296875 18.609375 23.390625 
Q 18.609375 15.53125 22.484375 10.953125 
Q 26.375 6.390625 33.015625 6.390625 
Q 39.65625 6.390625 43.53125 10.953125 
Q 47.40625 15.53125 47.40625 23.390625 
Q 47.40625 31.296875 43.53125 35.828125 
Q 39.65625 40.375 33.015625 40.375 
z
M 52.59375 71.296875 
L 52.59375 62.3125 
Q 48.875 64.0625 45.09375 64.984375 
Q 41.3125 65.921875 37.59375 65.921875 
Q 27.828125 65.921875 22.671875 59.328125 
Q 17.53125 52.734375 16.796875 39.40625 
Q 19.671875 43.65625 24.015625 45.921875 
Q 28.375 48.1875 33.59375 48.1875 
Q 44.578125 48.1875 50.953125 41.515625 
Q 57.328125 34.859375 57.328125 23.390625 
Q 57.328125 12.15625 50.6875 5.359375 
Q 44.046875 -1.421875 33.015625 -1.421875 
Q 20.359375 -1.421875 13.671875 8.265625 
Q 6.984375 17.96875 6.984375 36.375 
Q 6.984375 53.65625 15.1875 63.9375 
Q 23.390625 74.21875 37.203125 74.21875 
Q 40.921875 74.21875 44.703125 73.484375 
Q 48.484375 72.75 52.59375 71.296875 
z
" id="DejaVuSans-54"/>
      </defs>
      <g transform="translate(19.261878 17.054342)scale(0.0833 -0.0833)">
       <use xlink:href="#DejaVuSans-48"/>
       <use x="63.623047" xlink:href="#DejaVuSans-46"/>
       <use x="95.410156" xlink:href="#DejaVuSans-54"/>
      </g>
     </g>
    </g>
    <g id="ytick_5">
     <g id="line2d_35">
      <defs>
       <path d="M 0 0 
L 3 0 
" id="m7b221c9fb0" style="stroke:#000000;stroke-width:0.5;"/>
      </defs>
      <g>
       <use style="stroke:#000000;stroke-width:0.5;" x="37.509181" xlink:href="#m7b221c9fb0" y="80.78552"/>
      </g>
     </g>
     <g id="line2d_36">
      <defs>
       <path d="M 0 0 
L -3 0 
" id="mb24ff2bfd2" style="stroke:#000000;stroke-width:0.5;"/>
      </defs>
      <g>
       <use style="stroke:#000000;stroke-width:0.5;" x="125.038593" xlink:href="#mb24ff2bfd2" y="80.78552"/>
      </g>
     </g>
    </g>
    <g id="ytick_6">
     <g id="line2d_37">
      <g>
       <use style="stroke:#000000;stroke-width:0.5;" x="37.509181" xlink:href="#m7b221c9fb0" y="54.027149"/>
      </g>
     </g>
     <g id="line2d_38">
      <g>
       <use style="stroke:#000000;stroke-width:0.5;" x="125.038593" xlink:href="#mb24ff2bfd2" y="54.027149"/>
      </g>
     </g>
    </g>
    <g id="ytick_7">
     <g id="line2d_39">
      <g>
       <use style="stroke:#000000;stroke-width:0.5;" x="37.509181" xlink:href="#m7b221c9fb0" y="27.268778"/>
      </g>
     </g>
     <g id="line2d_40">
      <g>
       <use style="stroke:#000000;stroke-width:0.5;" x="125.038593" xlink:href="#mb24ff2bfd2" y="27.268778"/>
      </g>
     </g>
    </g>
    <g id="text_9">
     <!-- Frac -->
     <defs>
      <path d="M 9.8125 72.90625 
L 51.703125 72.90625 
L 51.703125 64.59375 
L 19.671875 64.59375 
L 19.671875 43.109375 
L 48.578125 43.109375 
L 48.578125 34.8125 
L 19.671875 34.8125 
L 19.671875 0 
L 9.8125 0 
z
" id="DejaVuSans-70"/>
     </defs>
     <g transform="translate(13.529498 59.627992)rotate(-90)scale(0.0833 -0.0833)">
      <use xlink:href="#DejaVuSans-70"/>
      <use x="57.410156" xlink:href="#DejaVuSans-114"/>
      <use x="98.523438" xlink:href="#DejaVuSans-97"/>
      <use x="159.802734" xlink:href="#DejaVuSans-99"/>
     </g>
    </g>
   </g>
   <g id="patch_4">
    <path d="M 37.509181 94.164706 
L 37.509181 7.2 
" style="fill:none;stroke:#000000;stroke-linecap:square;stroke-linejoin:miter;stroke-width:0.8;"/>
   </g>
   <g id="patch_5">
    <path d="M 125.038593 94.164706 
L 125.038593 7.2 
" style="fill:none;stroke:#000000;stroke-linecap:square;stroke-linejoin:miter;stroke-width:0.8;"/>
   </g>
   <g id="patch_6">
    <path d="M 37.509181 94.164706 
L 125.038593 94.164706 
" style="fill:none;stroke:#000000;stroke-linecap:square;stroke-linejoin:miter;stroke-width:0.8;"/>
   </g>
   <g id="patch_7">
    <path d="M 37.509181 7.2 
L 125.038593 7.2 
" style="fill:none;stroke:#000000;stroke-linecap:square;stroke-linejoin:miter;stroke-width:0.8;"/>
   </g>
  </g>
  <g id="axes_2">
   <g id="patch_8">
    <path d="M 173.179769 94.164706 
L 260.709181 94.164706 
L 260.709181 7.2 
L 173.179769 7.2 
z
" style="fill:#ffffff;"/>
   </g>
   <g id="patch_9">
    <path clip-path="url(#pf50ff20517)" d="M 173.179769 94.164706 
L 173.179769 93.574661 
L 174.930358 93.574661 
L 174.930358 93.547841 
L 176.680946 93.547841 
L 176.680946 93.380214 
L 178.431534 93.380214 
L 178.431534 93.333279 
L 180.182122 93.333279 
L 180.182122 93.024846 
L 181.932711 93.024846 
L 181.932711 92.850515 
L 183.683299 92.850515 
L 183.683299 92.568903 
L 185.433887 92.568903 
L 185.433887 92.642658 
L 187.184475 92.642658 
L 187.184475 92.293995 
L 188.935064 92.293995 
L 188.935064 91.65031 
L 190.685652 91.65031 
L 190.685652 91.797821 
L 192.43624 91.797821 
L 192.43624 91.422338 
L 194.186828 91.422338 
L 194.186828 91.328467 
L 195.937417 91.328467 
L 195.937417 90.698192 
L 197.688005 90.698192 
L 197.688005 89.86006 
L 199.438593 89.86006 
L 199.438593 89.511397 
L 201.189181 89.511397 
L 201.189181 88.847597 
L 202.939769 88.847597 
L 202.939769 88.465409 
L 204.690358 88.465409 
L 204.690358 87.45965 
L 206.440946 87.45965 
L 206.440946 86.520942 
L 208.191534 86.520942 
L 208.191534 85.568825 
L 209.942122 85.568825 
L 209.942122 84.221108 
L 211.692711 84.221108 
L 211.692711 82.927033 
L 213.443299 82.927033 
L 213.443299 80.734479 
L 215.193887 80.734479 
L 215.193887 79.071626 
L 216.944475 79.071626 
L 216.944475 76.865662 
L 218.695064 76.865662 
L 218.695064 74.606059 
L 220.445652 74.606059 
L 220.445652 71.749705 
L 222.19624 71.749705 
L 222.19624 68.128975 
L 223.946828 68.128975 
L 223.946828 64.059006 
L 225.697417 64.059006 
L 225.697417 59.68731 
L 227.448005 59.68731 
L 227.448005 54.403726 
L 229.198593 54.403726 
L 229.198593 50.011914 
L 230.949181 50.011914 
L 230.949181 43.025246 
L 232.699769 43.025246 
L 232.699769 35.260792 
L 234.450358 35.260792 
L 234.450358 28.931219 
L 236.200946 28.931219 
L 236.200946 34.650632 
L 237.951534 34.650632 
L 237.951534 63.770689 
L 239.702122 63.770689 
L 239.702122 92.153189 
L 241.452711 92.153189 
L 241.452711 93.272933 
L 243.203299 93.272933 
L 243.203299 93.614891 
L 244.953887 93.614891 
L 244.953887 93.695352 
L 246.704475 93.695352 
L 246.704475 93.795928 
L 248.455064 93.795928 
L 248.455064 93.909914 
L 250.205652 93.909914 
L 250.205652 93.950144 
L 251.95624 93.950144 
L 251.95624 94.017195 
L 253.706828 94.017195 
L 253.706828 93.997079 
L 255.457417 93.997079 
L 255.457417 94.03731 
L 257.208005 94.03731 
L 257.208005 94.07754 
L 258.958593 94.07754 
L 258.958593 94.084245 
L 260.709181 94.084245 
L 260.709181 94.164706 
" style="fill:none;stroke:#000000;stroke-linejoin:miter;stroke-width:0.5;"/>
   </g>
   <g id="matplotlib.axis_3">
    <g id="xtick_14">
     <g id="line2d_41">
      <g>
       <use style="stroke:#000000;stroke-width:0.5;" x="173.179769" xlink:href="#m427c818cd7" y="94.164706"/>
      </g>
     </g>
     <g id="line2d_42">
      <g>
       <use style="stroke:#000000;stroke-width:0.5;" x="173.179769" xlink:href="#m2a97f587a5" y="7.2"/>
      </g>
     </g>
     <g id="text_10">
      <!-- 14 -->
      <g transform="translate(167.879807 105.494204)scale(0.0833 -0.0833)">
       <use xlink:href="#DejaVuSans-49"/>
       <use x="63.623047" xlink:href="#DejaVuSans-52"/>
      </g>
     </g>
    </g>
    <g id="xtick_15">
     <g id="line2d_43">
      <g>
       <use style="stroke:#000000;stroke-width:0.5;" x="208.191534" xlink:href="#m427c818cd7" y="94.164706"/>
      </g>
     </g>
     <g id="line2d_44">
      <g>
       <use style="stroke:#000000;stroke-width:0.5;" x="208.191534" xlink:href="#m2a97f587a5" y="7.2"/>
      </g>
     </g>
     <g id="text_11">
      <!-- 16 -->
      <g transform="translate(202.891572 105.494204)scale(0.0833 -0.0833)">
       <use xlink:href="#DejaVuSans-49"/>
       <use x="63.623047" xlink:href="#DejaVuSans-54"/>
      </g>
     </g>
    </g>
    <g id="xtick_16">
     <g id="line2d_45">
      <g>
       <use style="stroke:#000000;stroke-width:0.5;" x="243.203299" xlink:href="#m427c818cd7" y="94.164706"/>
      </g>
     </g>
     <g id="line2d_46">
      <g>
       <use style="stroke:#000000;stroke-width:0.5;" x="243.203299" xlink:href="#m2a97f587a5" y="7.2"/>
      </g>
     </g>
     <g id="text_12">
      <!-- 18 -->
      <defs>
       <path d="M 31.78125 34.625 
Q 24.75 34.625 20.71875 30.859375 
Q 16.703125 27.09375 16.703125 20.515625 
Q 16.703125 13.921875 20.71875 10.15625 
Q 24.75 6.390625 31.78125 6.390625 
Q 38.8125 6.390625 42.859375 10.171875 
Q 46.921875 13.96875 46.921875 20.515625 
Q 46.921875 27.09375 42.890625 30.859375 
Q 38.875 34.625 31.78125 34.625 
z
M 21.921875 38.8125 
Q 15.578125 40.375 12.03125 44.71875 
Q 8.5 49.078125 8.5 55.328125 
Q 8.5 64.0625 14.71875 69.140625 
Q 20.953125 74.21875 31.78125 74.21875 
Q 42.671875 74.21875 48.875 69.140625 
Q 55.078125 64.0625 55.078125 55.328125 
Q 55.078125 49.078125 51.53125 44.71875 
Q 48 40.375 41.703125 38.8125 
Q 48.828125 37.15625 52.796875 32.3125 
Q 56.78125 27.484375 56.78125 20.515625 
Q 56.78125 9.90625 50.3125 4.234375 
Q 43.84375 -1.421875 31.78125 -1.421875 
Q 19.734375 -1.421875 13.25 4.234375 
Q 6.78125 9.90625 6.78125 20.515625 
Q 6.78125 27.484375 10.78125 32.3125 
Q 14.796875 37.15625 21.921875 38.8125 
z
M 18.3125 54.390625 
Q 18.3125 48.734375 21.84375 45.5625 
Q 25.390625 42.390625 31.78125 42.390625 
Q 38.140625 42.390625 41.71875 45.5625 
Q 45.3125 48.734375 45.3125 54.390625 
Q 45.3125 60.0625 41.71875 63.234375 
Q 38.140625 66.40625 31.78125 66.40625 
Q 25.390625 66.40625 21.84375 63.234375 
Q 18.3125 60.0625 18.3125 54.390625 
z
" id="DejaVuSans-56"/>
      </defs>
      <g transform="translate(237.903336 105.494204)scale(0.0833 -0.0833)">
       <use xlink:href="#DejaVuSans-49"/>
       <use x="63.623047" xlink:href="#DejaVuSans-56"/>
      </g>
     </g>
    </g>
    <g id="xtick_17">
     <g id="line2d_47">
      <g>
       <use style="stroke:#000000;stroke-width:0.5;" x="181.932711" xlink:href="#m1173a83ee5" y="94.164706"/>
      </g>
     </g>
     <g id="line2d_48">
      <g>
       <use style="stroke:#000000;stroke-width:0.5;" x="181.932711" xlink:href="#m5ba1b056b7" y="7.2"/>
      </g>
     </g>
    </g>
    <g id="xtick_18">
     <g id="line2d_49">
      <g>
       <use style="stroke:#000000;stroke-width:0.5;" x="190.685652" xlink:href="#m1173a83ee5" y="94.164706"/>
      </g>
     </g>
     <g id="line2d_50">
      <g>
       <use style="stroke:#000000;stroke-width:0.5;" x="190.685652" xlink:href="#m5ba1b056b7" y="7.2"/>
      </g>
     </g>
    </g>
    <g id="xtick_19">
     <g id="line2d_51">
      <g>
       <use style="stroke:#000000;stroke-width:0.5;" x="199.438593" xlink:href="#m1173a83ee5" y="94.164706"/>
      </g>
     </g>
     <g id="line2d_52">
      <g>
       <use style="stroke:#000000;stroke-width:0.5;" x="199.438593" xlink:href="#m5ba1b056b7" y="7.2"/>
      </g>
     </g>
    </g>
    <g id="xtick_20">
     <g id="line2d_53">
      <g>
       <use style="stroke:#000000;stroke-width:0.5;" x="216.944475" xlink:href="#m1173a83ee5" y="94.164706"/>
      </g>
     </g>
     <g id="line2d_54">
      <g>
       <use style="stroke:#000000;stroke-width:0.5;" x="216.944475" xlink:href="#m5ba1b056b7" y="7.2"/>
      </g>
     </g>
    </g>
    <g id="xtick_21">
     <g id="line2d_55">
      <g>
       <use style="stroke:#000000;stroke-width:0.5;" x="225.697417" xlink:href="#m1173a83ee5" y="94.164706"/>
      </g>
     </g>
     <g id="line2d_56">
      <g>
       <use style="stroke:#000000;stroke-width:0.5;" x="225.697417" xlink:href="#m5ba1b056b7" y="7.2"/>
      </g>
     </g>
    </g>
    <g id="xtick_22">
     <g id="line2d_57">
      <g>
       <use style="stroke:#000000;stroke-width:0.5;" x="234.450358" xlink:href="#m1173a83ee5" y="94.164706"/>
      </g>
     </g>
     <g id="line2d_58">
      <g>
       <use style="stroke:#000000;stroke-width:0.5;" x="234.450358" xlink:href="#m5ba1b056b7" y="7.2"/>
      </g>
     </g>
    </g>
    <g id="xtick_23">
     <g id="line2d_59">
      <g>
       <use style="stroke:#000000;stroke-width:0.5;" x="251.95624" xlink:href="#m1173a83ee5" y="94.164706"/>
      </g>
     </g>
     <g id="line2d_60">
      <g>
       <use style="stroke:#000000;stroke-width:0.5;" x="251.95624" xlink:href="#m5ba1b056b7" y="7.2"/>
      </g>
     </g>
    </g>
    <g id="xtick_24">
     <g id="line2d_61">
      <g>
       <use style="stroke:#000000;stroke-width:0.5;" x="260.709181" xlink:href="#m1173a83ee5" y="94.164706"/>
      </g>
     </g>
     <g id="line2d_62">
      <g>
       <use style="stroke:#000000;stroke-width:0.5;" x="260.709181" xlink:href="#m5ba1b056b7" y="7.2"/>
      </g>
     </g>
    </g>
    <g id="text_13">
     <!-- $r$ [mag] -->
     <defs>
      <path d="M 52 44.1875 
Q 55.375 50.25 60.0625 53.125 
Q 64.75 56 71.09375 56 
Q 79.640625 56 84.28125 50.015625 
Q 88.921875 44.046875 88.921875 33.015625 
L 88.921875 0 
L 79.890625 0 
L 79.890625 32.71875 
Q 79.890625 40.578125 77.09375 44.375 
Q 74.3125 48.1875 68.609375 48.1875 
Q 61.625 48.1875 57.5625 43.546875 
Q 53.515625 38.921875 53.515625 30.90625 
L 53.515625 0 
L 44.484375 0 
L 44.484375 32.71875 
Q 44.484375 40.625 41.703125 44.40625 
Q 38.921875 48.1875 33.109375 48.1875 
Q 26.21875 48.1875 22.15625 43.53125 
Q 18.109375 38.875 18.109375 30.90625 
L 18.109375 0 
L 9.078125 0 
L 9.078125 54.6875 
L 18.109375 54.6875 
L 18.109375 46.1875 
Q 21.1875 51.21875 25.484375 53.609375 
Q 29.78125 56 35.6875 56 
Q 41.65625 56 45.828125 52.96875 
Q 50 49.953125 52 44.1875 
z
" id="DejaVuSans-109"/>
      <path d="M 45.40625 27.984375 
Q 45.40625 37.75 41.375 43.109375 
Q 37.359375 48.484375 30.078125 48.484375 
Q 22.859375 48.484375 18.828125 43.109375 
Q 14.796875 37.75 14.796875 27.984375 
Q 14.796875 18.265625 18.828125 12.890625 
Q 22.859375 7.515625 30.078125 7.515625 
Q 37.359375 7.515625 41.375 12.890625 
Q 45.40625 18.265625 45.40625 27.984375 
z
M 54.390625 6.78125 
Q 54.390625 -7.171875 48.1875 -13.984375 
Q 42 -20.796875 29.203125 -20.796875 
Q 24.46875 -20.796875 20.265625 -20.09375 
Q 16.0625 -19.390625 12.109375 -17.921875 
L 12.109375 -9.1875 
Q 16.0625 -11.328125 19.921875 -12.34375 
Q 23.78125 -13.375 27.78125 -13.375 
Q 36.625 -13.375 41.015625 -8.765625 
Q 45.40625 -4.15625 45.40625 5.171875 
L 45.40625 9.625 
Q 42.625 4.78125 38.28125 2.390625 
Q 33.9375 0 27.875 0 
Q 17.828125 0 11.671875 7.65625 
Q 5.515625 15.328125 5.515625 27.984375 
Q 5.515625 40.671875 11.671875 48.328125 
Q 17.828125 56 27.875 56 
Q 33.9375 56 38.28125 53.609375 
Q 42.625 51.21875 45.40625 46.390625 
L 45.40625 54.6875 
L 54.390625 54.6875 
z
" id="DejaVuSans-103"/>
     </defs>
     <g transform="translate(201.367375 117.557384)scale(0.0833 -0.0833)">
      <use transform="translate(0 0.015625)" xlink:href="#DejaVuSans-Oblique-114"/>
      <use transform="translate(41.113281 0.015625)" xlink:href="#DejaVuSans-32"/>
      <use transform="translate(72.900391 0.015625)" xlink:href="#DejaVuSans-91"/>
      <use transform="translate(111.914062 0.015625)" xlink:href="#DejaVuSans-109"/>
      <use transform="translate(209.326172 0.015625)" xlink:href="#DejaVuSans-97"/>
      <use transform="translate(270.605469 0.015625)" xlink:href="#DejaVuSans-103"/>
      <use transform="translate(334.082031 0.015625)" xlink:href="#DejaVuSans-93"/>
     </g>
    </g>
   </g>
   <g id="matplotlib.axis_4">
    <g id="ytick_8">
     <g id="line2d_63">
      <g>
       <use style="stroke:#000000;stroke-width:0.5;" x="173.179769" xlink:href="#m2a1e3e6cb8" y="94.164706"/>
      </g>
     </g>
     <g id="line2d_64">
      <g>
       <use style="stroke:#000000;stroke-width:0.5;" x="260.709181" xlink:href="#m11d9790bbe" y="94.164706"/>
      </g>
     </g>
     <g id="text_14">
      <!-- 0 -->
      <g transform="translate(162.879807 97.329455)scale(0.0833 -0.0833)">
       <use xlink:href="#DejaVuSans-48"/>
      </g>
     </g>
    </g>
    <g id="ytick_9">
     <g id="line2d_65">
      <g>
       <use style="stroke:#000000;stroke-width:0.5;" x="173.179769" xlink:href="#m2a1e3e6cb8" y="69.317647"/>
      </g>
     </g>
     <g id="line2d_66">
      <g>
       <use style="stroke:#000000;stroke-width:0.5;" x="260.709181" xlink:href="#m11d9790bbe" y="69.317647"/>
      </g>
     </g>
     <g id="text_15">
      <!-- 0.4 -->
      <g transform="translate(154.932466 72.482396)scale(0.0833 -0.0833)">
       <use xlink:href="#DejaVuSans-48"/>
       <use x="63.623047" xlink:href="#DejaVuSans-46"/>
       <use x="95.410156" xlink:href="#DejaVuSans-52"/>
      </g>
     </g>
    </g>
    <g id="ytick_10">
     <g id="line2d_67">
      <g>
       <use style="stroke:#000000;stroke-width:0.5;" x="173.179769" xlink:href="#m2a1e3e6cb8" y="44.470588"/>
      </g>
     </g>
     <g id="line2d_68">
      <g>
       <use style="stroke:#000000;stroke-width:0.5;" x="260.709181" xlink:href="#m11d9790bbe" y="44.470588"/>
      </g>
     </g>
     <g id="text_16">
      <!-- 0.8 -->
      <g transform="translate(154.932466 47.635337)scale(0.0833 -0.0833)">
       <use xlink:href="#DejaVuSans-48"/>
       <use x="63.623047" xlink:href="#DejaVuSans-46"/>
       <use x="95.410156" xlink:href="#DejaVuSans-56"/>
      </g>
     </g>
    </g>
    <g id="ytick_11">
     <g id="line2d_69">
      <g>
       <use style="stroke:#000000;stroke-width:0.5;" x="173.179769" xlink:href="#m2a1e3e6cb8" y="19.623529"/>
      </g>
     </g>
     <g id="line2d_70">
      <g>
       <use style="stroke:#000000;stroke-width:0.5;" x="260.709181" xlink:href="#m11d9790bbe" y="19.623529"/>
      </g>
     </g>
     <g id="text_17">
      <!-- 1.2 -->
      <g transform="translate(154.932466 22.788279)scale(0.0833 -0.0833)">
       <use xlink:href="#DejaVuSans-49"/>
       <use x="63.623047" xlink:href="#DejaVuSans-46"/>
       <use x="95.410156" xlink:href="#DejaVuSans-50"/>
      </g>
     </g>
    </g>
    <g id="ytick_12">
     <g id="line2d_71">
      <g>
       <use style="stroke:#000000;stroke-width:0.5;" x="173.179769" xlink:href="#m7b221c9fb0" y="81.741176"/>
      </g>
     </g>
     <g id="line2d_72">
      <g>
       <use style="stroke:#000000;stroke-width:0.5;" x="260.709181" xlink:href="#mb24ff2bfd2" y="81.741176"/>
      </g>
     </g>
    </g>
    <g id="ytick_13">
     <g id="line2d_73">
      <g>
       <use style="stroke:#000000;stroke-width:0.5;" x="173.179769" xlink:href="#m7b221c9fb0" y="56.894118"/>
      </g>
     </g>
     <g id="line2d_74">
      <g>
       <use style="stroke:#000000;stroke-width:0.5;" x="260.709181" xlink:href="#mb24ff2bfd2" y="56.894118"/>
      </g>
     </g>
    </g>
    <g id="ytick_14">
     <g id="line2d_75">
      <g>
       <use style="stroke:#000000;stroke-width:0.5;" x="173.179769" xlink:href="#m7b221c9fb0" y="32.047059"/>
      </g>
     </g>
     <g id="line2d_76">
      <g>
       <use style="stroke:#000000;stroke-width:0.5;" x="260.709181" xlink:href="#mb24ff2bfd2" y="32.047059"/>
      </g>
     </g>
    </g>
    <g id="ytick_15">
     <g id="line2d_77">
      <g>
       <use style="stroke:#000000;stroke-width:0.5;" x="173.179769" xlink:href="#m7b221c9fb0" y="7.2"/>
      </g>
     </g>
     <g id="line2d_78">
      <g>
       <use style="stroke:#000000;stroke-width:0.5;" x="260.709181" xlink:href="#mb24ff2bfd2" y="7.2"/>
      </g>
     </g>
    </g>
    <g id="text_18">
     <!-- Frac -->
     <g transform="translate(149.200087 59.627992)rotate(-90)scale(0.0833 -0.0833)">
      <use xlink:href="#DejaVuSans-70"/>
      <use x="57.410156" xlink:href="#DejaVuSans-114"/>
      <use x="98.523438" xlink:href="#DejaVuSans-97"/>
      <use x="159.802734" xlink:href="#DejaVuSans-99"/>
     </g>
    </g>
   </g>
   <g id="patch_10">
    <path d="M 173.179769 94.164706 
L 173.179769 7.2 
" style="fill:none;stroke:#000000;stroke-linecap:square;stroke-linejoin:miter;stroke-width:0.8;"/>
   </g>
   <g id="patch_11">
    <path d="M 260.709181 94.164706 
L 260.709181 7.2 
" style="fill:none;stroke:#000000;stroke-linecap:square;stroke-linejoin:miter;stroke-width:0.8;"/>
   </g>
   <g id="patch_12">
    <path d="M 173.179769 94.164706 
L 260.709181 94.164706 
" style="fill:none;stroke:#000000;stroke-linecap:square;stroke-linejoin:miter;stroke-width:0.8;"/>
   </g>
   <g id="patch_13">
    <path d="M 173.179769 7.2 
L 260.709181 7.2 
" style="fill:none;stroke:#000000;stroke-linecap:square;stroke-linejoin:miter;stroke-width:0.8;"/>
   </g>
  </g>
  <g id="axes_3">
   <g id="patch_14">
    <path d="M 37.509181 228.96 
L 125.038593 228.96 
L 125.038593 141.995294 
L 37.509181 141.995294 
z
" style="fill:#ffffff;"/>
   </g>
   <g id="patch_15">
    <path clip-path="url(#pe00951d620)" d="M 37.509181 228.96 
L 37.509181 228.87647 
L 39.259769 228.87647 
L 39.259769 228.852605 
L 41.010358 228.852605 
L 41.010358 228.745209 
L 42.760946 228.745209 
L 42.760946 228.554284 
L 44.511534 228.554284 
L 44.511534 228.220164 
L 46.262122 228.220164 
L 46.262122 228.017306 
L 48.012711 228.017306 
L 48.012711 227.742851 
L 49.763299 227.742851 
L 49.763299 226.752426 
L 51.513887 226.752426 
L 51.513887 226.227382 
L 53.264475 226.227382 
L 53.264475 224.210733 
L 55.015064 224.210733 
L 55.015064 222.575935 
L 56.765652 222.575935 
L 56.765652 220.630884 
L 58.51624 220.630884 
L 58.51624 217.456751 
L 60.266828 217.456751 
L 60.266828 213.864969 
L 62.017417 213.864969 
L 62.017417 209.342426 
L 63.768005 209.342426 
L 63.768005 202.862899 
L 65.518593 202.862899 
L 65.518593 197.159006 
L 67.269181 197.159006 
L 67.269181 190.500486 
L 69.019769 190.500486 
L 69.019769 182.744146 
L 70.770358 182.744146 
L 70.770358 175.548649 
L 72.520946 175.548649 
L 72.520946 167.92357 
L 74.271534 167.92357 
L 74.271534 163.305564 
L 76.022122 163.305564 
L 76.022122 158.878484 
L 77.772711 158.878484 
L 77.772711 155.370232 
L 79.523299 155.370232 
L 79.523299 156.157798 
L 81.273887 156.157798 
L 81.273887 156.909567 
L 83.024475 156.909567 
L 83.024475 161.109923 
L 84.775064 161.109923 
L 84.775064 164.773302 
L 86.525652 164.773302 
L 86.525652 171.71821 
L 88.27624 171.71821 
L 88.27624 176.94479 
L 90.026828 176.94479 
L 90.026828 185.488697 
L 91.777417 185.488697 
L 91.777417 193.865544 
L 93.528005 193.865544 
L 93.528005 199.891624 
L 95.278593 199.891624 
L 95.278593 207.67183 
L 97.029181 207.67183 
L 97.029181 213.435387 
L 98.779769 213.435387 
L 98.779769 216.740781 
L 100.530358 216.740781 
L 100.530358 219.521131 
L 102.280946 219.521131 
L 102.280946 222.480473 
L 104.031534 222.480473 
L 104.031534 224.067539 
L 105.782122 224.067539 
L 105.782122 225.332419 
L 107.532711 225.332419 
L 107.532711 226.764359 
L 109.283299 226.764359 
L 109.283299 227.349068 
L 111.033887 227.349068 
L 111.033887 227.981508 
L 112.784475 227.981508 
L 112.784475 228.172433 
L 114.535064 228.172433 
L 114.535064 228.399157 
L 116.285652 228.399157 
L 116.285652 228.566217 
L 118.03624 228.566217 
L 118.03624 228.79294 
L 119.786828 228.79294 
L 119.786828 228.816806 
L 121.537417 228.816806 
L 121.537417 228.864537 
L 123.288005 228.864537 
L 123.288005 228.888403 
L 125.038593 228.888403 
L 125.038593 228.96 
" style="fill:none;stroke:#000000;stroke-linejoin:miter;stroke-width:0.5;"/>
   </g>
   <g id="matplotlib.axis_5">
    <g id="xtick_25">
     <g id="line2d_79">
      <g>
       <use style="stroke:#000000;stroke-width:0.5;" x="37.509181" xlink:href="#m427c818cd7" y="228.96"/>
      </g>
     </g>
     <g id="line2d_80">
      <g>
       <use style="stroke:#000000;stroke-width:0.5;" x="37.509181" xlink:href="#m2a97f587a5" y="141.995294"/>
      </g>
     </g>
     <g id="text_19">
      <!-- 18 -->
      <g transform="translate(32.209219 240.289498)scale(0.0833 -0.0833)">
       <use xlink:href="#DejaVuSans-49"/>
       <use x="63.623047" xlink:href="#DejaVuSans-56"/>
      </g>
     </g>
    </g>
    <g id="xtick_26">
     <g id="line2d_81">
      <g>
       <use style="stroke:#000000;stroke-width:0.5;" x="66.685652" xlink:href="#m427c818cd7" y="228.96"/>
      </g>
     </g>
     <g id="line2d_82">
      <g>
       <use style="stroke:#000000;stroke-width:0.5;" x="66.685652" xlink:href="#m2a97f587a5" y="141.995294"/>
      </g>
     </g>
     <g id="text_20">
      <!-- 20 -->
      <g transform="translate(61.385689 240.289498)scale(0.0833 -0.0833)">
       <use xlink:href="#DejaVuSans-50"/>
       <use x="63.623047" xlink:href="#DejaVuSans-48"/>
      </g>
     </g>
    </g>
    <g id="xtick_27">
     <g id="line2d_83">
      <g>
       <use style="stroke:#000000;stroke-width:0.5;" x="95.862122" xlink:href="#m427c818cd7" y="228.96"/>
      </g>
     </g>
     <g id="line2d_84">
      <g>
       <use style="stroke:#000000;stroke-width:0.5;" x="95.862122" xlink:href="#m2a97f587a5" y="141.995294"/>
      </g>
     </g>
     <g id="text_21">
      <!-- 22 -->
      <g transform="translate(90.56216 240.289498)scale(0.0833 -0.0833)">
       <use xlink:href="#DejaVuSans-50"/>
       <use x="63.623047" xlink:href="#DejaVuSans-50"/>
      </g>
     </g>
    </g>
    <g id="xtick_28">
     <g id="line2d_85">
      <g>
       <use style="stroke:#000000;stroke-width:0.5;" x="125.038593" xlink:href="#m427c818cd7" y="228.96"/>
      </g>
     </g>
     <g id="line2d_86">
      <g>
       <use style="stroke:#000000;stroke-width:0.5;" x="125.038593" xlink:href="#m2a97f587a5" y="141.995294"/>
      </g>
     </g>
     <g id="text_22">
      <!-- 24 -->
      <g transform="translate(119.738631 240.289498)scale(0.0833 -0.0833)">
       <use xlink:href="#DejaVuSans-50"/>
       <use x="63.623047" xlink:href="#DejaVuSans-52"/>
      </g>
     </g>
    </g>
    <g id="xtick_29">
     <g id="line2d_87">
      <g>
       <use style="stroke:#000000;stroke-width:0.5;" x="44.803299" xlink:href="#m1173a83ee5" y="228.96"/>
      </g>
     </g>
     <g id="line2d_88">
      <g>
       <use style="stroke:#000000;stroke-width:0.5;" x="44.803299" xlink:href="#m5ba1b056b7" y="141.995294"/>
      </g>
     </g>
    </g>
    <g id="xtick_30">
     <g id="line2d_89">
      <g>
       <use style="stroke:#000000;stroke-width:0.5;" x="52.097417" xlink:href="#m1173a83ee5" y="228.96"/>
      </g>
     </g>
     <g id="line2d_90">
      <g>
       <use style="stroke:#000000;stroke-width:0.5;" x="52.097417" xlink:href="#m5ba1b056b7" y="141.995294"/>
      </g>
     </g>
    </g>
    <g id="xtick_31">
     <g id="line2d_91">
      <g>
       <use style="stroke:#000000;stroke-width:0.5;" x="59.391534" xlink:href="#m1173a83ee5" y="228.96"/>
      </g>
     </g>
     <g id="line2d_92">
      <g>
       <use style="stroke:#000000;stroke-width:0.5;" x="59.391534" xlink:href="#m5ba1b056b7" y="141.995294"/>
      </g>
     </g>
    </g>
    <g id="xtick_32">
     <g id="line2d_93">
      <g>
       <use style="stroke:#000000;stroke-width:0.5;" x="73.979769" xlink:href="#m1173a83ee5" y="228.96"/>
      </g>
     </g>
     <g id="line2d_94">
      <g>
       <use style="stroke:#000000;stroke-width:0.5;" x="73.979769" xlink:href="#m5ba1b056b7" y="141.995294"/>
      </g>
     </g>
    </g>
    <g id="xtick_33">
     <g id="line2d_95">
      <g>
       <use style="stroke:#000000;stroke-width:0.5;" x="81.273887" xlink:href="#m1173a83ee5" y="228.96"/>
      </g>
     </g>
     <g id="line2d_96">
      <g>
       <use style="stroke:#000000;stroke-width:0.5;" x="81.273887" xlink:href="#m5ba1b056b7" y="141.995294"/>
      </g>
     </g>
    </g>
    <g id="xtick_34">
     <g id="line2d_97">
      <g>
       <use style="stroke:#000000;stroke-width:0.5;" x="88.568005" xlink:href="#m1173a83ee5" y="228.96"/>
      </g>
     </g>
     <g id="line2d_98">
      <g>
       <use style="stroke:#000000;stroke-width:0.5;" x="88.568005" xlink:href="#m5ba1b056b7" y="141.995294"/>
      </g>
     </g>
    </g>
    <g id="xtick_35">
     <g id="line2d_99">
      <g>
       <use style="stroke:#000000;stroke-width:0.5;" x="103.15624" xlink:href="#m1173a83ee5" y="228.96"/>
      </g>
     </g>
     <g id="line2d_100">
      <g>
       <use style="stroke:#000000;stroke-width:0.5;" x="103.15624" xlink:href="#m5ba1b056b7" y="141.995294"/>
      </g>
     </g>
    </g>
    <g id="xtick_36">
     <g id="line2d_101">
      <g>
       <use style="stroke:#000000;stroke-width:0.5;" x="110.450358" xlink:href="#m1173a83ee5" y="228.96"/>
      </g>
     </g>
     <g id="line2d_102">
      <g>
       <use style="stroke:#000000;stroke-width:0.5;" x="110.450358" xlink:href="#m5ba1b056b7" y="141.995294"/>
      </g>
     </g>
    </g>
    <g id="xtick_37">
     <g id="line2d_103">
      <g>
       <use style="stroke:#000000;stroke-width:0.5;" x="117.744475" xlink:href="#m1173a83ee5" y="228.96"/>
      </g>
     </g>
     <g id="line2d_104">
      <g>
       <use style="stroke:#000000;stroke-width:0.5;" x="117.744475" xlink:href="#m5ba1b056b7" y="141.995294"/>
      </g>
     </g>
    </g>
    <g id="text_23">
     <!-- $\mu_{50,r}$ [magarcsec$^{-2}$] -->
     <defs>
      <path d="M -1.3125 -20.796875 
L 13.375 54.6875 
L 22.40625 54.6875 
L 15.765625 20.65625 
Q 15.578125 19.625 15.421875 18.359375 
Q 15.28125 17.09375 15.28125 15.828125 
Q 15.28125 11.28125 18.140625 8.828125 
Q 21 6.390625 26.3125 6.390625 
Q 33.546875 6.390625 37.984375 10.484375 
Q 42.4375 14.59375 44 22.796875 
L 50.203125 54.6875 
L 59.1875 54.6875 
L 51.03125 12.640625 
Q 50.828125 11.71875 50.75 11.03125 
Q 50.6875 10.359375 50.6875 9.8125 
Q 50.6875 8.296875 51.296875 7.59375 
Q 51.90625 6.890625 53.21875 6.890625 
Q 53.71875 6.890625 54.5625 7.125 
Q 55.421875 7.375 56.984375 8.015625 
L 55.609375 0.78125 
Q 53.46875 -0.296875 51.515625 -0.859375 
Q 49.5625 -1.421875 47.703125 -1.421875 
Q 44.484375 -1.421875 42.65625 0.625 
Q 40.828125 2.6875 40.828125 6.296875 
Q 38.09375 2.390625 34.296875 0.484375 
Q 30.515625 -1.421875 25.390625 -1.421875 
Q 20.84375 -1.421875 17.453125 0.671875 
Q 14.0625 2.78125 12.984375 6.203125 
L 7.71875 -20.796875 
z
" id="DejaVuSans-Oblique-956"/>
      <path d="M 10.59375 35.5 
L 73.1875 35.5 
L 73.1875 27.203125 
L 10.59375 27.203125 
z
" id="DejaVuSans-8722"/>
     </defs>
     <g transform="translate(40.248637 253.602178)scale(0.0833 -0.0833)">
      <use transform="translate(0 0.765625)" xlink:href="#DejaVuSans-Oblique-956"/>
      <use transform="translate(63.623047 -15.640625)scale(0.7)" xlink:href="#DejaVuSans-53"/>
      <use transform="translate(108.15918 -15.640625)scale(0.7)" xlink:href="#DejaVuSans-48"/>
      <use transform="translate(152.695312 -15.640625)scale(0.7)" xlink:href="#DejaVuSans-44"/>
      <use transform="translate(188.583984 -15.640625)scale(0.7)" xlink:href="#DejaVuSans-Oblique-114"/>
      <use transform="translate(220.097656 0.765625)" xlink:href="#DejaVuSans-32"/>
      <use transform="translate(251.884766 0.765625)" xlink:href="#DejaVuSans-91"/>
      <use transform="translate(290.898438 0.765625)" xlink:href="#DejaVuSans-109"/>
      <use transform="translate(388.310547 0.765625)" xlink:href="#DejaVuSans-97"/>
      <use transform="translate(449.589844 0.765625)" xlink:href="#DejaVuSans-103"/>
      <use transform="translate(513.066406 0.765625)" xlink:href="#DejaVuSans-97"/>
      <use transform="translate(574.345703 0.765625)" xlink:href="#DejaVuSans-114"/>
      <use transform="translate(615.458984 0.765625)" xlink:href="#DejaVuSans-99"/>
      <use transform="translate(670.439453 0.765625)" xlink:href="#DejaVuSans-115"/>
      <use transform="translate(722.539062 0.765625)" xlink:href="#DejaVuSans-101"/>
      <use transform="translate(784.0625 0.765625)" xlink:href="#DejaVuSans-99"/>
      <use transform="translate(840 39.046875)scale(0.7)" xlink:href="#DejaVuSans-8722"/>
      <use transform="translate(898.652344 39.046875)scale(0.7)" xlink:href="#DejaVuSans-50"/>
      <use transform="translate(945.922852 0.765625)" xlink:href="#DejaVuSans-93"/>
     </g>
    </g>
   </g>
   <g id="matplotlib.axis_6">
    <g id="ytick_16">
     <g id="line2d_105">
      <g>
       <use style="stroke:#000000;stroke-width:0.5;" x="37.509181" xlink:href="#m2a1e3e6cb8" y="228.96"/>
      </g>
     </g>
     <g id="line2d_106">
      <g>
       <use style="stroke:#000000;stroke-width:0.5;" x="125.038593" xlink:href="#m11d9790bbe" y="228.96"/>
      </g>
     </g>
     <g id="text_24">
      <!-- 0 -->
      <g transform="translate(27.209219 232.124749)scale(0.0833 -0.0833)">
       <use xlink:href="#DejaVuSans-48"/>
      </g>
     </g>
    </g>
    <g id="ytick_17">
     <g id="line2d_107">
      <g>
       <use style="stroke:#000000;stroke-width:0.5;" x="37.509181" xlink:href="#m2a1e3e6cb8" y="202.201629"/>
      </g>
     </g>
     <g id="line2d_108">
      <g>
       <use style="stroke:#000000;stroke-width:0.5;" x="125.038593" xlink:href="#m11d9790bbe" y="202.201629"/>
      </g>
     </g>
     <g id="text_25">
      <!-- 0.2 -->
      <g transform="translate(19.261878 205.366378)scale(0.0833 -0.0833)">
       <use xlink:href="#DejaVuSans-48"/>
       <use x="63.623047" xlink:href="#DejaVuSans-46"/>
       <use x="95.410156" xlink:href="#DejaVuSans-50"/>
      </g>
     </g>
    </g>
    <g id="ytick_18">
     <g id="line2d_109">
      <g>
       <use style="stroke:#000000;stroke-width:0.5;" x="37.509181" xlink:href="#m2a1e3e6cb8" y="175.443258"/>
      </g>
     </g>
     <g id="line2d_110">
      <g>
       <use style="stroke:#000000;stroke-width:0.5;" x="125.038593" xlink:href="#m11d9790bbe" y="175.443258"/>
      </g>
     </g>
     <g id="text_26">
      <!-- 0.4 -->
      <g transform="translate(19.261878 178.608007)scale(0.0833 -0.0833)">
       <use xlink:href="#DejaVuSans-48"/>
       <use x="63.623047" xlink:href="#DejaVuSans-46"/>
       <use x="95.410156" xlink:href="#DejaVuSans-52"/>
      </g>
     </g>
    </g>
    <g id="ytick_19">
     <g id="line2d_111">
      <g>
       <use style="stroke:#000000;stroke-width:0.5;" x="37.509181" xlink:href="#m2a1e3e6cb8" y="148.684887"/>
      </g>
     </g>
     <g id="line2d_112">
      <g>
       <use style="stroke:#000000;stroke-width:0.5;" x="125.038593" xlink:href="#m11d9790bbe" y="148.684887"/>
      </g>
     </g>
     <g id="text_27">
      <!-- 0.6 -->
      <g transform="translate(19.261878 151.849636)scale(0.0833 -0.0833)">
       <use xlink:href="#DejaVuSans-48"/>
       <use x="63.623047" xlink:href="#DejaVuSans-46"/>
       <use x="95.410156" xlink:href="#DejaVuSans-54"/>
      </g>
     </g>
    </g>
    <g id="ytick_20">
     <g id="line2d_113">
      <g>
       <use style="stroke:#000000;stroke-width:0.5;" x="37.509181" xlink:href="#m7b221c9fb0" y="215.580814"/>
      </g>
     </g>
     <g id="line2d_114">
      <g>
       <use style="stroke:#000000;stroke-width:0.5;" x="125.038593" xlink:href="#mb24ff2bfd2" y="215.580814"/>
      </g>
     </g>
    </g>
    <g id="ytick_21">
     <g id="line2d_115">
      <g>
       <use style="stroke:#000000;stroke-width:0.5;" x="37.509181" xlink:href="#m7b221c9fb0" y="188.822443"/>
      </g>
     </g>
     <g id="line2d_116">
      <g>
       <use style="stroke:#000000;stroke-width:0.5;" x="125.038593" xlink:href="#mb24ff2bfd2" y="188.822443"/>
      </g>
     </g>
    </g>
    <g id="ytick_22">
     <g id="line2d_117">
      <g>
       <use style="stroke:#000000;stroke-width:0.5;" x="37.509181" xlink:href="#m7b221c9fb0" y="162.064072"/>
      </g>
     </g>
     <g id="line2d_118">
      <g>
       <use style="stroke:#000000;stroke-width:0.5;" x="125.038593" xlink:href="#mb24ff2bfd2" y="162.064072"/>
      </g>
     </g>
    </g>
    <g id="text_28">
     <!-- Frac -->
     <g transform="translate(13.529498 194.423286)rotate(-90)scale(0.0833 -0.0833)">
      <use xlink:href="#DejaVuSans-70"/>
      <use x="57.410156" xlink:href="#DejaVuSans-114"/>
      <use x="98.523438" xlink:href="#DejaVuSans-97"/>
      <use x="159.802734" xlink:href="#DejaVuSans-99"/>
     </g>
    </g>
   </g>
   <g id="patch_16">
    <path d="M 37.509181 228.96 
L 37.509181 141.995294 
" style="fill:none;stroke:#000000;stroke-linecap:square;stroke-linejoin:miter;stroke-width:0.8;"/>
   </g>
   <g id="patch_17">
    <path d="M 125.038593 228.96 
L 125.038593 141.995294 
" style="fill:none;stroke:#000000;stroke-linecap:square;stroke-linejoin:miter;stroke-width:0.8;"/>
   </g>
   <g id="patch_18">
    <path d="M 37.509181 228.96 
L 125.038593 228.96 
" style="fill:none;stroke:#000000;stroke-linecap:square;stroke-linejoin:miter;stroke-width:0.8;"/>
   </g>
   <g id="patch_19">
    <path d="M 37.509181 141.995294 
L 125.038593 141.995294 
" style="fill:none;stroke:#000000;stroke-linecap:square;stroke-linejoin:miter;stroke-width:0.8;"/>
   </g>
  </g>
  <g id="axes_4">
   <g id="patch_20">
    <path d="M 173.179769 228.96 
L 260.709181 228.96 
L 260.709181 141.995294 
L 173.179769 141.995294 
z
" style="fill:#ffffff;"/>
   </g>
   <g id="patch_21">
    <path clip-path="url(#p821e5e2c0f)" d="M 173.179769 228.96 
L 173.179769 224.446873 
L 175.68061 224.446873 
L 175.68061 218.519322 
L 178.18145 218.519322 
L 178.18145 200.829724 
L 180.68229 200.829724 
L 180.68229 193.394696 
L 183.183131 193.394696 
L 183.183131 179.008521 
L 185.683971 179.008521 
L 185.683971 178.710748 
L 188.184812 178.710748 
L 188.184812 173.890542 
L 190.685652 173.890542 
L 190.685652 157.959668 
L 193.186492 157.959668 
L 193.186492 150.561861 
L 195.687333 150.561861 
L 195.687333 174.048734 
L 198.188173 174.048734 
L 198.188173 175.388714 
L 200.689013 175.388714 
L 200.689013 169.963656 
L 203.189854 169.963656 
L 203.189854 173.73235 
L 205.690694 173.73235 
L 205.690694 174.895527 
L 208.191534 174.895527 
L 208.191534 189.356145 
L 210.692375 189.356145 
L 210.692375 194.70676 
L 213.193215 194.70676 
L 213.193215 201.769571 
L 215.694055 201.769571 
L 215.694055 206.087285 
L 218.194896 206.087285 
L 218.194896 206.589777 
L 220.695736 206.589777 
L 220.695736 211.865949 
L 223.196576 211.865949 
L 223.196576 217.700445 
L 225.697417 217.700445 
L 225.697417 218.724041 
L 228.198257 218.724041 
L 228.198257 220.873593 
L 230.699097 220.873593 
L 230.699097 224.04674 
L 233.199938 224.04674 
L 233.199938 225.544912 
L 235.700778 225.544912 
L 235.700778 226.717394 
L 238.201618 226.717394 
L 238.201618 226.698784 
L 240.702459 226.698784 
L 240.702459 227.685158 
L 243.203299 227.685158 
L 243.203299 228.075985 
L 245.704139 228.075985 
L 245.704139 228.355148 
L 248.20498 228.355148 
L 248.20498 228.494729 
L 250.70582 228.494729 
L 250.70582 228.764586 
L 253.20666 228.764586 
L 253.20666 228.83903 
L 255.707501 228.83903 
L 255.707501 228.829724 
L 258.208341 228.829724 
L 258.208341 228.876251 
L 260.709181 228.876251 
L 260.709181 228.96 
" style="fill:none;stroke:#000000;stroke-linejoin:miter;stroke-width:0.5;"/>
   </g>
   <g id="matplotlib.axis_7">
    <g id="xtick_38">
     <g id="line2d_119">
      <g>
       <use style="stroke:#000000;stroke-width:0.5;" x="173.179769" xlink:href="#m427c818cd7" y="228.96"/>
      </g>
     </g>
     <g id="line2d_120">
      <g>
       <use style="stroke:#000000;stroke-width:0.5;" x="173.179769" xlink:href="#m2a97f587a5" y="141.995294"/>
      </g>
     </g>
     <g id="text_29">
      <!-- 0 -->
      <g transform="translate(170.529788 240.289498)scale(0.0833 -0.0833)">
       <use xlink:href="#DejaVuSans-48"/>
      </g>
     </g>
    </g>
    <g id="xtick_39">
     <g id="line2d_121">
      <g>
       <use style="stroke:#000000;stroke-width:0.5;" x="198.188173" xlink:href="#m427c818cd7" y="228.96"/>
      </g>
     </g>
     <g id="line2d_122">
      <g>
       <use style="stroke:#000000;stroke-width:0.5;" x="198.188173" xlink:href="#m2a97f587a5" y="141.995294"/>
      </g>
     </g>
     <g id="text_30">
      <!-- 0.1 -->
      <g transform="translate(191.564521 240.289498)scale(0.0833 -0.0833)">
       <use xlink:href="#DejaVuSans-48"/>
       <use x="63.623047" xlink:href="#DejaVuSans-46"/>
       <use x="95.410156" xlink:href="#DejaVuSans-49"/>
      </g>
     </g>
    </g>
    <g id="xtick_40">
     <g id="line2d_123">
      <g>
       <use style="stroke:#000000;stroke-width:0.5;" x="223.196576" xlink:href="#m427c818cd7" y="228.96"/>
      </g>
     </g>
     <g id="line2d_124">
      <g>
       <use style="stroke:#000000;stroke-width:0.5;" x="223.196576" xlink:href="#m2a97f587a5" y="141.995294"/>
      </g>
     </g>
     <g id="text_31">
      <!-- 0.2 -->
      <g transform="translate(216.572925 240.289498)scale(0.0833 -0.0833)">
       <use xlink:href="#DejaVuSans-48"/>
       <use x="63.623047" xlink:href="#DejaVuSans-46"/>
       <use x="95.410156" xlink:href="#DejaVuSans-50"/>
      </g>
     </g>
    </g>
    <g id="xtick_41">
     <g id="line2d_125">
      <g>
       <use style="stroke:#000000;stroke-width:0.5;" x="248.20498" xlink:href="#m427c818cd7" y="228.96"/>
      </g>
     </g>
     <g id="line2d_126">
      <g>
       <use style="stroke:#000000;stroke-width:0.5;" x="248.20498" xlink:href="#m2a97f587a5" y="141.995294"/>
      </g>
     </g>
     <g id="text_32">
      <!-- 0.3 -->
      <defs>
       <path d="M 40.578125 39.3125 
Q 47.65625 37.796875 51.625 33 
Q 55.609375 28.21875 55.609375 21.1875 
Q 55.609375 10.40625 48.1875 4.484375 
Q 40.765625 -1.421875 27.09375 -1.421875 
Q 22.515625 -1.421875 17.65625 -0.515625 
Q 12.796875 0.390625 7.625 2.203125 
L 7.625 11.71875 
Q 11.71875 9.328125 16.59375 8.109375 
Q 21.484375 6.890625 26.8125 6.890625 
Q 36.078125 6.890625 40.9375 10.546875 
Q 45.796875 14.203125 45.796875 21.1875 
Q 45.796875 27.640625 41.28125 31.265625 
Q 36.765625 34.90625 28.71875 34.90625 
L 20.21875 34.90625 
L 20.21875 43.015625 
L 29.109375 43.015625 
Q 36.375 43.015625 40.234375 45.921875 
Q 44.09375 48.828125 44.09375 54.296875 
Q 44.09375 59.90625 40.109375 62.90625 
Q 36.140625 65.921875 28.71875 65.921875 
Q 24.65625 65.921875 20.015625 65.03125 
Q 15.375 64.15625 9.8125 62.3125 
L 9.8125 71.09375 
Q 15.4375 72.65625 20.34375 73.4375 
Q 25.25 74.21875 29.59375 74.21875 
Q 40.828125 74.21875 47.359375 69.109375 
Q 53.90625 64.015625 53.90625 55.328125 
Q 53.90625 49.265625 50.4375 45.09375 
Q 46.96875 40.921875 40.578125 39.3125 
z
" id="DejaVuSans-51"/>
      </defs>
      <g transform="translate(241.581328 240.289498)scale(0.0833 -0.0833)">
       <use xlink:href="#DejaVuSans-48"/>
       <use x="63.623047" xlink:href="#DejaVuSans-46"/>
       <use x="95.410156" xlink:href="#DejaVuSans-51"/>
      </g>
     </g>
    </g>
    <g id="xtick_42">
     <g id="line2d_127">
      <g>
       <use style="stroke:#000000;stroke-width:0.5;" x="185.683971" xlink:href="#m1173a83ee5" y="228.96"/>
      </g>
     </g>
     <g id="line2d_128">
      <g>
       <use style="stroke:#000000;stroke-width:0.5;" x="185.683971" xlink:href="#m5ba1b056b7" y="141.995294"/>
      </g>
     </g>
    </g>
    <g id="xtick_43">
     <g id="line2d_129">
      <g>
       <use style="stroke:#000000;stroke-width:0.5;" x="210.692375" xlink:href="#m1173a83ee5" y="228.96"/>
      </g>
     </g>
     <g id="line2d_130">
      <g>
       <use style="stroke:#000000;stroke-width:0.5;" x="210.692375" xlink:href="#m5ba1b056b7" y="141.995294"/>
      </g>
     </g>
    </g>
    <g id="xtick_44">
     <g id="line2d_131">
      <g>
       <use style="stroke:#000000;stroke-width:0.5;" x="235.700778" xlink:href="#m1173a83ee5" y="228.96"/>
      </g>
     </g>
     <g id="line2d_132">
      <g>
       <use style="stroke:#000000;stroke-width:0.5;" x="235.700778" xlink:href="#m5ba1b056b7" y="141.995294"/>
      </g>
     </g>
    </g>
    <g id="xtick_45">
     <g id="line2d_133">
      <g>
       <use style="stroke:#000000;stroke-width:0.5;" x="260.709181" xlink:href="#m1173a83ee5" y="228.96"/>
      </g>
     </g>
     <g id="line2d_134">
      <g>
       <use style="stroke:#000000;stroke-width:0.5;" x="260.709181" xlink:href="#m5ba1b056b7" y="141.995294"/>
      </g>
     </g>
    </g>
    <g id="text_33">
     <!-- $z$ -->
     <defs>
      <path d="M 11.625 54.6875 
L 54.296875 54.6875 
L 52.6875 46.484375 
L 11.53125 7.171875 
L 45.515625 7.171875 
L 44.09375 0 
L -0.296875 0 
L 1.3125 8.203125 
L 42.484375 47.515625 
L 10.203125 47.515625 
z
" id="DejaVuSans-Oblique-122"/>
     </defs>
     <g transform="translate(214.737025 252.351377)scale(0.0833 -0.0833)">
      <use transform="translate(0 0.3125)" xlink:href="#DejaVuSans-Oblique-122"/>
     </g>
    </g>
   </g>
   <g id="matplotlib.axis_8">
    <g id="ytick_23">
     <g id="line2d_135">
      <g>
       <use style="stroke:#000000;stroke-width:0.5;" x="173.179769" xlink:href="#m2a1e3e6cb8" y="228.96"/>
      </g>
     </g>
     <g id="line2d_136">
      <g>
       <use style="stroke:#000000;stroke-width:0.5;" x="260.709181" xlink:href="#m11d9790bbe" y="228.96"/>
      </g>
     </g>
     <g id="text_34">
      <!-- 0 -->
      <g transform="translate(162.879807 232.124749)scale(0.0833 -0.0833)">
       <use xlink:href="#DejaVuSans-48"/>
      </g>
     </g>
    </g>
    <g id="ytick_24">
     <g id="line2d_137">
      <g>
       <use style="stroke:#000000;stroke-width:0.5;" x="173.179769" xlink:href="#m2a1e3e6cb8" y="194.174118"/>
      </g>
     </g>
     <g id="line2d_138">
      <g>
       <use style="stroke:#000000;stroke-width:0.5;" x="260.709181" xlink:href="#m11d9790bbe" y="194.174118"/>
      </g>
     </g>
     <g id="text_35">
      <!-- 4 -->
      <g transform="translate(162.879807 197.338867)scale(0.0833 -0.0833)">
       <use xlink:href="#DejaVuSans-52"/>
      </g>
     </g>
    </g>
    <g id="ytick_25">
     <g id="line2d_139">
      <g>
       <use style="stroke:#000000;stroke-width:0.5;" x="173.179769" xlink:href="#m2a1e3e6cb8" y="159.388235"/>
      </g>
     </g>
     <g id="line2d_140">
      <g>
       <use style="stroke:#000000;stroke-width:0.5;" x="260.709181" xlink:href="#m11d9790bbe" y="159.388235"/>
      </g>
     </g>
     <g id="text_36">
      <!-- 8 -->
      <g transform="translate(162.879807 162.552985)scale(0.0833 -0.0833)">
       <use xlink:href="#DejaVuSans-56"/>
      </g>
     </g>
    </g>
    <g id="ytick_26">
     <g id="line2d_141">
      <g>
       <use style="stroke:#000000;stroke-width:0.5;" x="173.179769" xlink:href="#m7b221c9fb0" y="211.567059"/>
      </g>
     </g>
     <g id="line2d_142">
      <g>
       <use style="stroke:#000000;stroke-width:0.5;" x="260.709181" xlink:href="#mb24ff2bfd2" y="211.567059"/>
      </g>
     </g>
    </g>
    <g id="ytick_27">
     <g id="line2d_143">
      <g>
       <use style="stroke:#000000;stroke-width:0.5;" x="173.179769" xlink:href="#m7b221c9fb0" y="176.781176"/>
      </g>
     </g>
     <g id="line2d_144">
      <g>
       <use style="stroke:#000000;stroke-width:0.5;" x="260.709181" xlink:href="#mb24ff2bfd2" y="176.781176"/>
      </g>
     </g>
    </g>
    <g id="ytick_28">
     <g id="line2d_145">
      <g>
       <use style="stroke:#000000;stroke-width:0.5;" x="173.179769" xlink:href="#m7b221c9fb0" y="141.995294"/>
      </g>
     </g>
     <g id="line2d_146">
      <g>
       <use style="stroke:#000000;stroke-width:0.5;" x="260.709181" xlink:href="#mb24ff2bfd2" y="141.995294"/>
      </g>
     </g>
    </g>
    <g id="text_37">
     <!-- Frac -->
     <g transform="translate(157.147427 194.423286)rotate(-90)scale(0.0833 -0.0833)">
      <use xlink:href="#DejaVuSans-70"/>
      <use x="57.410156" xlink:href="#DejaVuSans-114"/>
      <use x="98.523438" xlink:href="#DejaVuSans-97"/>
      <use x="159.802734" xlink:href="#DejaVuSans-99"/>
     </g>
    </g>
   </g>
   <g id="patch_22">
    <path d="M 173.179769 228.96 
L 173.179769 141.995294 
" style="fill:none;stroke:#000000;stroke-linecap:square;stroke-linejoin:miter;stroke-width:0.8;"/>
   </g>
   <g id="patch_23">
    <path d="M 260.709181 228.96 
L 260.709181 141.995294 
" style="fill:none;stroke:#000000;stroke-linecap:square;stroke-linejoin:miter;stroke-width:0.8;"/>
   </g>
   <g id="patch_24">
    <path d="M 173.179769 228.96 
L 260.709181 228.96 
" style="fill:none;stroke:#000000;stroke-linecap:square;stroke-linejoin:miter;stroke-width:0.8;"/>
   </g>
   <g id="patch_25">
    <path d="M 173.179769 141.995294 
L 260.709181 141.995294 
" style="fill:none;stroke:#000000;stroke-linecap:square;stroke-linejoin:miter;stroke-width:0.8;"/>
   </g>
  </g>
 </g>
 <defs>
  <clipPath id="p4e9755d884">
   <rect height="86.964706" width="87.529412" x="37.509181" y="7.2"/>
  </clipPath>
  <clipPath id="pf50ff20517">
   <rect height="86.964706" width="87.529412" x="173.179769" y="7.2"/>
  </clipPath>
  <clipPath id="pe00951d620">
   <rect height="86.964706" width="87.529412" x="37.509181" y="141.995294"/>
  </clipPath>
  <clipPath id="p821e5e2c0f">
   <rect height="86.964706" width="87.529412" x="173.179769" y="141.995294"/>
  </clipPath>
 </defs>
</svg>
